<?xml version="1.0" encoding="UTF-8"?>
<svg id="Layer_1" xmlns="http://www.w3.org/2000/svg" viewBox="0 0 250 151">
  <defs>
    <style>
      .cls-1 {
        fill: #ede8e1;
      }

      .cls-2, .cls-3 {
        fill: #4a3728;
      }

      .cls-4 {
        letter-spacing: -.01em;
      }

      .cls-5 {
        letter-spacing: 0em;
      }

      .cls-6 {
        letter-spacing: -.06em;
      }

      .cls-3 {
        font-family: AbrilFatface-Regular, 'Abril Fatface';
        font-size: 25.66px;
      }
    </style>
  </defs>
  <rect class="cls-1" width="250" height="151"/>
  <g>
    <path class="cls-2" d="M112.32,95.12c.13.39-.14.61-.31.8-.33.39-.72.73-1.09,1.09-.11.1-.23.2-.36.28-.63.4-1.27.08-1.36-.69-.01-.11-.06-.21-.1-.32-.1.07-.22.11-.3.2-.55.63-1.19,1.06-2.07,1.03-.87-.03-1.46-.6-1.51-1.49-.03-.65.01-1.26.22-1.91.23-.72.54-1.38.93-2.01.39-.62.71-1.29,1.27-1.81.54-.49,1.06-.98,1.86-.93.25.01.32-.12.33-.35.04-.58.02-1.17.17-1.72.12-.44.15-.86.12-1.31-.03-.41-.17-.51-.57-.39-.13.04-.28.02-.42.02.03-.13.03-.3.1-.39.31-.35.61-.71.98-.99.14-.11.43-.06.65-.06,1.2.01,1.04-.15,1.02,1.04-.03,1.37-.13,2.73-.21,4.09-.06.94-.14,1.87-.21,2.81-.07.89-.14,1.78-.2,2.67,0,.02,0,.05,0,.07.04.22.08.45.13.67.19-.07.38-.13.56-.21.11-.04.21-.11.37-.19ZM108.88,90.66c-.27.09-.55.17-.82.28-.58.23-.77.8-.93,1.29-.36,1.1-.44,2.22.04,3.33.21.49.88.8,1.2.47.32-.33.68-.72.79-1.14.21-.87.47-1.74.41-2.66-.01-.23.02-.47.05-.7.07-.59-.12-.8-.74-.87Z"/>
    <path class="cls-2" d="M144.78,91.29c-.13.1-.24.23-.38.28-.15.05-.32.03-.49.05.06-.15.09-.33.19-.43.45-.47.92-.93,1.39-1.39.39-.39.75-.44,1.17-.22.22.12.31.28.28.51-.08.63-.19,1.25-.25,1.88-.05.54-.04,1.08-.1,1.62-.07.63-.17,1.25-.28,1.87-.07.37-.18.72-.29,1.08-.03.1-.09.19-.14.28-.09.14-.19.27-.27.41-.19.33-.34.69-.55,1-.42.63-.83,1.28-1.32,1.86-.57.66-1.18,1.3-1.85,1.85-.47.39-1.06.64-1.62.9-.28.13-.97-.1-1.09-.35-.17-.36-.12-.73.05-1.09.24-.51.64-.9,1.03-1.29.41-.41.77-.88,1.16-1.32.2-.23.44-.42.63-.65.1-.12.2-.29.18-.42,0-.08-.22-.17-.36-.2-.53-.14-.76-.32-.75-.88.05-1.5.07-3.01.09-4.51,0-.53-.03-.55-.52-.34-.08.03-.27,0-.3-.06-.05-.09-.05-.27.01-.34.29-.36.6-.69.9-1.04.14-.16.26-.34.41-.49.14-.14.29-.3.46-.35.62-.19.98.15.95.91-.03.71-.12,1.42-.16,2.13-.05,1.01-.1,2.02-.11,3.04,0,.18.17.49.31.52.26.06.62.04.82-.11.3-.23.51-.58.75-.9.09-.12.16-.27.16-.41.05-.83.1-1.67.12-2.5,0-.28-.08-.57-.13-.85-.04-.01-.08-.03-.12-.04ZM140.87,100.61c0,.32.2.47.47.4.11-.03.22-.08.34-.09.66-.04,1.11-.47,1.5-.92.43-.51.83-1.06,1-1.73.15-.6.33-1.19.49-1.79.01-.05-.02-.15-.06-.18-.05-.03-.15-.02-.19.02-.51.48-1.02.95-1.5,1.45-.43.44-.84.91-1.26,1.37-.39.44-.65.94-.78,1.47Z"/>
    <path class="cls-2" d="M178.97,95.35c-.07.14-.11.31-.21.42-.54.56-1.1,1.11-1.65,1.67-.21.21-.41.16-.62-.03-.28-.26-.45-.58-.42-.97.05-.69.14-1.37.19-2.06.05-.63.07-1.27.09-1.91.01-.4,0-.8,0-1.2,0-.24-.13-.32-.36-.33-.7,0-1.37.46-1.35,1.26,0,.11-.05.22-.08.34-.06.24-.16.47-.18.71-.07.77-.09,1.55-.17,2.33-.06.59-.44,1.02-.85,1.41-.11.1-.21.23-.33.31-.11.07-.28.13-.38.09-.09-.04-.18-.22-.18-.33,0-.75.03-1.51.07-2.26.06-1.1.07-2.21.22-3.3.15-1.03.09-2.07.24-3.09.11-.79.15-1.57.17-2.36,0-.12-.07-.25-.11-.38-.14.07-.29.13-.43.21-.13.08-.24.18-.36.27l-.12-.11c.08-.17.13-.37.25-.51.38-.43.77-.84,1.17-1.25.06-.06.17-.08.26-.08.19-.01.38,0,.57-.01.62,0,.66.06.6.67-.06.59-.06,1.18-.1,1.76-.07,1.15-.16,2.3-.23,3.45-.01.18.07.37.11.56.17-.1.36-.18.52-.3.43-.3.82-.66,1.28-.92.54-.31,1.41.03,1.56.82.18.94-.06,1.87-.1,2.8-.03.73-.04,1.46-.04,2.19,0,.26.18.27.38.21.18-.05.35-.11.52-.17.03.03.06.07.1.1Z"/>
    <path class="cls-2" d="M123.79,90.26c-.08,1.13-.14,2.16-.24,3.19-.08.79-.2,1.58-.33,2.37-.03.2-.19.37-.27.56-.22.49-.43.99-.67,1.47-.11.22-.26.41-.4.6-.55.74-1.02,1.55-1.67,2.19-.53.52-.93,1.21-1.68,1.49-.19.07-.36.21-.52.34-.46.37-.98.34-1.5.21-.28-.07-.45-.32-.42-.62.02-.23.08-.47.19-.67.29-.55.54-1.12,1.08-1.51.34-.25.57-.65.86-.97.29-.31.62-.6.91-.91.08-.08.18-.25.15-.32-.06-.1-.2-.18-.33-.22-.24-.08-.51-.09-.74-.21-.5-.26-.74-.74-.71-1.28.04-.71.1-1.44.31-2.11.23-.74.57-1.46.97-2.12.53-.88,1.17-1.7,2.06-2.28.33-.21,1.18-.22,1.56.04.2.14.38.16.58.01.42-.3.72-.15.79.38.02.15,0,.31,0,.36ZM119.11,94.08c.06.46.11.81.16,1.16.02.13.06.25.09.38.02.06.05.14.09.18.48.36,1.01.31,1.41-.15.44-.49.7-1.08.78-1.72.1-.83.15-1.66.19-2.5,0-.16-.12-.46-.21-.47-.42-.05-.89-.13-1.27,0-.53.17-.79.72-.93,1.21-.19.65-.24,1.34-.33,1.91ZM121.66,95.84s-.06-.03-.09-.05c-.71.79-1.44,1.58-2.14,2.38-.45.51-.89,1.03-1.3,1.57-.16.21-.23.48-.32.73-.03.08,0,.22.06.29.15.2.87.28,1.07.14.28-.19.54-.39.83-.56.72-.43,1.01-1.13,1.26-1.87.13-.37.22-.76.31-1.14.12-.5.21-1,.32-1.5Z"/>
    <path class="cls-2" d="M90.24,89.32c.33.06.57.13.81.13.26,0,.53-.02.77-.1.3-.11.58,0,.59.33.01.37-.05.74-.09,1.11-.03.26-.06.51-.09.77-.09.73-.18,1.46-.26,2.18-.05.47-.03.95-.12,1.41-.08.43-.26.85-.41,1.26-.23.61-.45,1.23-.72,1.82-.14.3-.35.57-.56.83-.41.53-.82,1.08-1.28,1.58-.29.32-.65.56-.97.84-.1.09-.2.2-.3.29-.52.49-1.13.81-1.8,1.05-.36.13-1.2-.27-1.28-.63-.03-.12,0-.29.07-.39.31-.43.64-.86.98-1.27.51-.63,1.04-1.25,1.56-1.87.14-.17.3-.33.45-.49.24-.28.21-.46-.11-.64-.01,0-.02-.02-.03-.02-.77-.16-1.12-.7-1.3-1.4-.05-.21-.11-.44-.09-.65.03-.35.11-.69.19-1.04.17-.69.4-1.36.79-1.97.32-.5.57-1.05.89-1.55.13-.21.34-.39.53-.56.31-.27.62-.57.97-.78.25-.15.57-.18.8-.25ZM87.63,93.95c.07.47.12.93.2,1.39.07.41.4.55.76.64.3.08.58.06.77-.2.26-.36.55-.73.69-1.14.18-.5.24-1.05.32-1.58.09-.58.14-1.16.2-1.74.03-.27-.11-.41-.36-.49-.8-.26-1.79.16-2.11.96-.27.68-.56,1.38-.48,2.16ZM90.18,96.33s-.09-.04-.13-.06c-.05.01-.13.01-.16.05-.21.22-.41.44-.62.66-.56.6-1.15,1.17-1.67,1.8-.43.53-.79,1.12-1.17,1.69-.13.2.03.34.19.35.37.02.81.1,1.11-.06.93-.49,1.69-1.18,1.87-2.31.02-.14.09-.27.12-.4.15-.57.3-1.14.44-1.72Z"/>
    <path class="cls-2" d="M53.08,91.33c-.3.13-.5.23-.72.3-.07.02-.16-.06-.25-.09.05-.07.08-.14.14-.21.25-.3.49-.61.75-.91.27-.3.57-.58.85-.88.24-.26.55-.19.83-.15.1.01.22.18.25.29.05.18.02.37.05.56.02.19.06.38.1.57.04.01.07.03.11.04.31-.31.65-.59.93-.92.54-.66,1.76-.72,2.37-.36.16.09.32.28.37.46.13.45.27.91.27,1.37,0,.45-.15.92-.31,1.35-.24.67-.56,1.31-.82,1.97-.32.81-.87,1.45-1.47,2.05-.45.46-.97.86-1.68.81-.25-.02-.33.09-.37.35-.17.96-.21,1.93-.22,2.91,0,.19-.15.39-.27.55-.27.36-.56.72-.87,1.05-.08.09-.25.15-.36.13-.09-.02-.18-.17-.21-.28-.04-.13-.02-.28,0-.42.03-.48.09-.96.11-1.44.06-1.22-.02-2.46.18-3.66.17-.99.02-1.99.21-2.94.13-.66.16-1.29.16-1.94,0-.19-.07-.37-.11-.57ZM54.63,94.61s.04,0,.05,0c0,.22,0,.45,0,.67.02.43.45.84.87.88.61.06,1.07-.11,1.26-.75.01-.04.05-.08.08-.12.38-.59.59-1.25.63-1.94.04-.62,0-1.25-.12-1.86-.04-.23-.34-.47-.58-.59-.29-.14-.64-.11-.94.09-.59.4-.72,1.07-.93,1.66-.21.61-.23,1.28-.33,1.93Z"/>
    <path class="cls-2" d="M124.86,91.53c.17-.25.29-.55.51-.75.44-.41.73-.96,1.28-1.27.43-.25.87-.17,1.01.32.09.33.11.68.17,1.1.14-.11.26-.17.35-.26.41-.44.79-.92,1.35-1.2.48-.24.99-.2,1.4-.01.26.12.45.6.49.94.07.49-.03,1.01-.05,1.51-.02.55-.02,1.1-.07,1.65-.05.52-.18,1.04-.21,1.56-.01.17.15.36.24.56.22-.15.35-.26.5-.32.1-.04.23-.02.35-.03-.01.13.03.31-.04.39-.34.4-.71.78-1.08,1.14-.22.21-.46.41-.71.57-.45.28-.89.09-.95-.44-.07-.6-.03-1.22-.04-1.83,0-.02.01-.05.01-.07.08-1.15.16-2.29.24-3.44.02-.34-.02-.68-.38-.83-.31-.12-.78.11-1.03.41-.59.72-.74,1.57-.78,2.45-.03.62-.05,1.25-.08,1.87-.02.52-.35.89-.64,1.27-.17.22-.4.4-.59.6-.18.19-.3.11-.37-.08-.1-.26-.2-.53-.22-.8-.02-.24.08-.49.12-.74.05-.36.11-.72.13-1.08.06-1,.11-2,.14-3,0-.13-.08-.27-.13-.4-.13.06-.26.11-.39.17-.14.06-.28.12-.42.18-.04-.04-.07-.09-.11-.13Z"/>
    <path class="cls-2" d="M193.93,90.85c.19-.18.41-.35.58-.55.35-.43.8-.75,1.3-.93.29-.1.64-.01.97,0,.43.02.45.36.58.68.17.43.11.82-.01,1.23-.02.07-.02.14-.03.21-.03,1.17-.06,2.33-.08,3.5,0,.21.05.41.09.72.22-.14.37-.25.53-.33.13-.06.29-.07.43-.1-.04.12-.04.27-.12.35-.61.64-1.09,1.42-1.93,1.82-.32.15-.77-.07-.83-.43-.15-.84-.09-1.67,0-2.52.13-1.08.08-2.19.09-3.28,0-.14-.14-.34-.26-.41-.2-.11-.42-.1-.61.1-.18.19-.47.31-.62.52-.18.26-.3.58-.37.89-.08.34-.06.7-.09,1.06-.07.85-.1,1.71-.25,2.55-.05.31-.39.56-.61.84-.09.12-.18.25-.29.34-.14.11-.33.26-.46.23-.13-.03-.29-.26-.29-.41,0-.67.05-1.34.08-2.01,0-.13.02-.26.03-.39.06-.78.13-1.57.18-2.35.02-.23,0-.47-.03-.7,0-.08-.08-.15-.12-.23-.09.05-.22.08-.25.15-.1.21-.24.33-.43.18-.07-.06-.04-.35.04-.45.38-.46.78-.91,1.19-1.33.24-.25.55-.4.92-.35.29.04.48.16.48.49,0,.3.02.6.04.89.04.01.08.02.13.03Z"/>
    <path class="cls-2" d="M157.01,89.46c.48.04.85.08,1.22.09.22,0,.43.03.44.29.02.25-.19.34-.4.36-.27.02-.54,0-.81,0-.2,0-.4,0-.6-.02-.38-.02-.48.16-.5.53-.05.95-.16,1.89-.25,2.84-.05.57-.09,1.15-.17,1.72-.05.35-.08.75-.27,1.04-.27.42-.67.76-1.03,1.1-.04.04-.28-.08-.36-.18-.07-.08-.03-.25-.04-.38-.11-1.36.16-2.69.21-4.04.02-.58,0-1.16,0-1.73,0-.09-.02-.2,0-.28.16-.45.06-.69-.46-.66-.07,0-.18-.13-.19-.21,0-.07.09-.17.15-.24.04-.04.11-.04.16-.06.64-.16.58-.17.69-.83.09-.54.3-1.07.5-1.59.17-.45.36-.9.63-1.29.32-.47.8-.85,1.1-1.34.27-.44.62-.38.99-.38.24,0,.47,0,.71,0,.68,0,.96.42.86,1.1-.18,1.19-.84,2.08-1.64,2.92-.34.35-.59.78-.96,1.27ZM156.63,88.73s.06.04.09.05c.3-.29.59-.6.91-.87.66-.56,1.07-1.22.88-2.11-.05-.22-.24-.51-.43-.58-.25-.09-.59-.16-.84.11-.36.39-.57.86-.6,1.37-.04.67,0,1.35,0,2.03Z"/>
    <path class="cls-2" d="M160.3,92.34c.02-.22-.02-.41.06-.5.78-.95,1.68-1.77,2.74-2.4.8-.48,1.74.07,1.7,1-.05,1.2-.14,2.4-.22,3.59-.03.42-.08.84-.1,1.25,0,.2.13.34.35.25.15-.06.27-.19.42-.25.11-.04.25-.03.38-.03-.02.11-.02.24-.08.32-.41.5-.81,1.01-1.26,1.47-.23.23-.57.36-.87.51-.06.03-.23-.04-.26-.11-.18-.34-.33-.69-.49-1.03-.05-.1-.09-.27-.14-.27-.11,0-.25.05-.34.13-.44.34-.85.72-1.31,1.04-.39.28-1.13.16-1.36-.15-.27-.38-.18-1.01.19-1.39.58-.6,1.14-1.22,1.73-1.82.34-.35.72-.65,1.08-.98.52-.47.58-1.08.51-1.73-.03-.21-.13-.32-.33-.35-.31-.05-.61-.02-.85.22-.31.32-.62.64-.95.93-.13.12-.33.17-.59.3ZM162.67,93.39c-.55.52-1.12.99-1.38,1.68-.08.2-.02.48.04.7.01.05.32.04.48.01.09-.01.15-.13.24-.18.71-.39,1.01-1.42.62-2.21Z"/>
    <path class="cls-2" d="M190.03,91.31c-.11,1.06-.45,2.16-1.08,3.17-.21.34-.35.72-.58,1.04-.34.47-.62,1.01-1.15,1.34-.06.04-.13.08-.15.14-.21.49-.69.54-1.1.57-.46.03-.91-.13-1.26-.51-.61-.67-.5-1.43-.43-2.23.09-.98.48-1.84.97-2.65.44-.74.97-1.42,1.55-2.07.3-.33.63-.59,1.01-.71.34-.11.76-.04,1.13.04.23.05.46.21.66.37.46.36.4.89.44,1.5ZM188.55,92.81s-.05-.02-.08-.02c-.03-.43,0-.88-.1-1.3-.19-.77-1.09-.99-1.58-.54-.32.3-.59.73-.72,1.15-.2.65-.39,1.31-.33,2.01.05.65.16,1.26.58,1.79.19.24.43.3.65.2.26-.12.48-.33.68-.54.11-.12.15-.3.24-.45.1-.17.24-.33.29-.52.14-.59.25-1.18.37-1.77Z"/>
    <path class="cls-2" d="M65.43,95.51c.12-.46.25-.91.35-1.37.26-1.23.93-2.23,1.7-3.18.23-.28.41-.62.69-.84.51-.41,1.04-.82,1.74-.82.12,0,.27.01.37.08.24.17.45.34.77.37.25.02.24.29.13.45-.34.49-.68.98-1.07,1.42-.47.52-1,.98-1.48,1.49-.41.44-.8.91-1.18,1.38-.29.37-.02,1.49.38,1.69.07.03.16.02.24,0,.47-.09.87-.26,1.16-.7.26-.38.62-.7.95-1.03.06-.06.19-.05.28-.08,0,.1.05.22,0,.29-.17.27-.34.54-.54.78-.44.5-.86,1.02-1.35,1.47-.89.82-1.59.95-2.56.19-.27-.21-.36-.66-.49-1.02-.06-.17-.01-.37-.01-.56-.03,0-.06-.02-.08-.02ZM67.1,93.72s.04.02.06.04c.03.07.04.18.09.2.05.02.17-.02.21-.07.43-.5.87-.98,1.25-1.51.24-.34.54-.7.37-1.19-.09-.27-.26-.36-.53-.27-.53.18-.85.58-1,1.09-.18.56-.3,1.14-.44,1.72Z"/>
    <path class="cls-2" d="M60.1,91.43c.46-.73.91-1.47,1.68-1.92.56-.33.97-.09,1.06.55.04.26.16.51.26.8.1-.08.16-.12.22-.17.32-.32.63-.66.96-.97.45-.41,1.07-.44,1.43-.11.23.21.18.45.11.68-.19.67-.52,1.26-1,1.77-.08.09-.31.19-.32.18-.12-.16-.22-.34-.3-.52-.02-.04.04-.11.06-.16.1-.34-.09-.57-.44-.52-.5.07-1.02.65-1.06,1.21-.04.48-.03.97-.08,1.45-.08.77-.17,1.54-.28,2.31-.03.17-.14.36-.26.49-.26.28-.54.56-.85.78-.12.09-.4.08-.54,0-.16-.1-.27-.28-.1-.54.11-.17.11-.43.12-.65.03-1,.04-2,.09-3,.02-.48.14-.95.19-1.43.01-.12-.06-.26-.09-.39-.12.06-.24.12-.36.17-.14.05-.28.09-.43.13l-.06-.13Z"/>
    <path class="cls-2" d="M80.66,95.27c-.14.23-.29.46-.42.7-.37.65-.96,1.09-1.54,1.52-.09.07-.25.08-.36.05-.23-.06-.56-.6-.55-.85.02-1,.02-2,.06-3,.04-.93.13-1.86.21-2.79.03-.35,0-.63-.43-.71-.08-.01-.19-.16-.19-.25,0-.07.12-.18.21-.22.7-.27,1.14-.76,1.42-1.46.15-.37.4-.71.63-1.05.03-.05.15-.1.21-.08.07.02.17.11.18.18.02.21.01.42,0,.63-.03.41-.07.82-.09,1.23-.01.24.14.36.37.4.24.04.46.13.43.41-.03.29-.29.32-.52.3-.35-.03-.49.12-.48.47.01.34,0,.67-.02,1.01-.07,1.07-.16,2.13-.22,3.2,0,.15.07.42.15.45.18.05.4-.02.6-.06.1-.02.18-.1.28-.15.02.03.05.05.07.08Z"/>
    <path class="cls-2" d="M98.31,94.54c-.2.29-.38.6-.61.87-.51.58-1.02,1.16-1.56,1.7-.87.87-2.38.4-2.74-.74-.25-.78-.02-1.42.14-2.12.07-.32.12-.65.24-.95.26-.68.62-1.31,1.06-1.89.38-.49.74-1,1.19-1.41.43-.39.96-.69,1.59-.63.22.02.44.14.65.22.1.04.19.1.28.13.42.09.41.1.23.5-.39.89-1.03,1.57-1.72,2.23-.66.63-1.31,1.27-1.9,1.97-.28.33-.17.8-.01,1.18.42,1.04,1.18.73,1.77,0,.48-.6.88-.97,1.39-1.05ZM95.03,94c.18-.22.28-.33.37-.45.48-.6.98-1.19,1.4-1.83.11-.17.09-.56-.03-.71-.09-.12-.49-.12-.68-.03-.26.13-.48.37-.66.61-.43.55-.57,1.2-.59,1.88,0,.15.1.31.18.53Z"/>
    <path class="cls-2" d="M72.96,91.87c-.47.42-.88.78-1.28,1.13-.03-.01-.06-.03-.09-.04.02-.11,0-.25.07-.33.2-.25.43-.46.64-.7.49-.56.97-1.13,1.47-1.68.44-.48.9-.92,1.64-.9.35.01.59.16.74.44.17.34-.05.62-.21.88-.12.21-.42.09-.52-.2-.08-.22-.14-.45-.44-.4-.08.01-.21.09-.21.14-.02.34-.11.74.02,1.02.26.56.65,1.06,1.01,1.57.52.75.78,1.53.33,2.41-.14.27-.21.59-.39.82-.27.34-.62.63-.94.94-.4.37-.83.65-1.41.61-1.03-.07-1.56-1.12-.99-1.98.12-.18.24-.35.38-.5.07-.07.22-.13.3-.1.08.03.13.17.16.27.09.31.13.64.26.94.14.31.49.34.76.3.28-.04.47-.27.52-.59.1-.61-.07-1.08-.52-1.52-.59-.58-1.07-1.25-1.19-2.1-.02-.11-.06-.22-.12-.43Z"/>
    <path class="cls-2" d="M167.86,91.9c-.52.24-.7.89-1.36,1.02.2-.69.69-1.04,1.07-1.47.22-.25.48-.47.71-.7.39-.38.75-.81,1.18-1.14.23-.18.59-.31.87-.27.25.03.56.28.68.52.09.18-.04.5-.13.75-.03.08-.23.13-.34.12-.06,0-.15-.17-.16-.27-.04-.27-.16-.39-.44-.38-.28,0-.44.14-.44.4,0,.26.05.52.14.76.29.78.91,1.35,1.33,2.05.26.43.34.9.24,1.36-.12.55-.27,1.12-.7,1.55-.33.32-.61.68-.95.99-.43.39-1.39.45-1.87.15-.42-.26-.67-1.23-.41-1.65.14-.23.3-.45.48-.65.18-.2.32-.15.4.11.06.19.13.39.15.58.04.42.31.63.65.79.26.12.78-.2.88-.53.17-.55-.07-1.03-.49-1.43-.39-.37-.64-.88-.96-1.32-.23-.3-.27-.65-.32-1.01-.01-.12-.14-.23-.21-.33Z"/>
    <path class="cls-2" d="M112.99,91.55c.07-.11.13-.23.21-.31.61-.61,1.1-1.34,1.86-1.79.33-.2.83.04.85.49.02.56-.04,1.12-.07,1.68,0,.13-.04.26-.04.38,0,.45.01.9-.01,1.34-.03.58-.11,1.16-.14,1.75,0,.14.06.3.15.42.03.03.23-.07.35-.1.17-.05.34-.1.5-.15-.05.16-.06.35-.16.47-.47.53-.95,1.07-1.47,1.54-.17.16-.55.22-.78.15-.31-.09-.54-.35-.5-.75.11-1.29.2-2.58.29-3.87.03-.37.06-.74.06-1.11,0-.11-.08-.29-.15-.31-.13-.02-.3.02-.4.1-.24.2-.23.21-.54.06Z"/>
    <path class="cls-2" d="M136.02,91.02c-.07.7-.16,1.4-.21,2.1-.05.66-.08,1.33-.11,2,0,.11.06.28.14.31.09.04.24-.04.35-.08.09-.03.16-.12.24-.13.09,0,.21.02.27.08.03.03,0,.18-.06.24-.28.36-.54.73-.86,1.06-.29.29-.62.55-.96.78-.43.29-.94.02-.97-.5-.03-.46-.01-.92,0-1.38.01-.4.03-.8.07-1.2.06-.76.14-1.51.2-2.27.01-.13.02-.26,0-.39-.02-.1-.07-.27-.13-.28-.11-.02-.24.04-.36.09-.07.03-.11.15-.17.16-.1.01-.21-.04-.32-.06.02-.08.02-.18.07-.24.49-.55.97-1.1,1.5-1.62.17-.17.45-.25.7-.31.27-.06.54.26.56.64.02.33,0,.66,0,.99.02,0,.03,0,.05,0Z"/>
    <path class="cls-2" d="M85.21,95.21c.14.36-.13.53-.28.72-.29.36-.58.71-.92,1.02-.26.24-.59.42-.91.59-.17.09-.57-.23-.59-.49-.05-.6-.08-1.2-.07-1.79.02-.78.09-1.55.14-2.33.02-.41.05-.82.06-1.23,0-.12-.04-.24-.07-.4-.18.12-.31.25-.45.29-.12.04-.26-.02-.39-.03.02-.13,0-.33.07-.38.48-.33.71-.87,1.11-1.25.25-.24.6-.41.94-.52.4-.14.71.15.71.66,0,.35-.09.69-.12,1.04-.04.5-.04,1.01-.08,1.52-.01.18-.09.35-.14.53-.03.1-.06.2-.06.31,0,.52-.01,1.03,0,1.55,0,.46.22.58.63.37.13-.07.28-.11.44-.17Z"/>
    <path class="cls-2" d="M183.46,95.29c-.1.16-.19.33-.32.47-.48.52-.97,1.05-1.48,1.54-.14.13-.48.26-.57.19-.23-.17-.5-.45-.51-.7-.05-.94-.02-1.88.03-2.82.04-.7.18-1.39.24-2.08.01-.16-.07-.34-.16-.48-.03-.05-.24.04-.37.06-.09.01-.17.02-.26.02,0-.1-.06-.24,0-.29.47-.54.92-1.09,1.44-1.56.18-.16.58-.21.82-.13.25.08.35.41.34.72-.06,1.03-.1,2.07-.15,3.1-.03.58-.1,1.16-.12,1.75,0,.14.09.31.19.41.04.04.23-.07.35-.12.15-.05.3-.11.45-.16.03.03.06.06.09.1Z"/>
    <path class="cls-2" d="M139.1,95.38c-.32.37-.63.75-.95,1.1-.16.17-.35.31-.53.47-.19.17-.3.08-.35-.12-.03-.11-.02-.23-.02-.35,0-1.57,0-3.14,0-4.7,0-.16.03-.33.05-.49.05-.47.06-.92-.24-1.23.12-.45.21-.84.33-1.22.08-.25.2-.48.32-.72.14-.28.28-.57.45-.84.04-.07.17-.1.25-.14.04.08.12.16.11.24-.02.53-.04,1.07-.08,1.6-.04.44-.01.47.41.55.2.03.39.14.57.25.06.03.1.19.07.24-.07.11-.18.24-.29.26-.22.04-.45,0-.67.04-.1.02-.26.15-.27.24-.11,1.39-.22,2.79-.3,4.18-.03.58.03.62.62.59.15,0,.29-.02.44-.03.03.03.05.06.08.1Z"/>
    <path class="cls-2" d="M46.86,96.82c.11-.41.34-.72.64-.98.15-.13.29-.28.46-.38.26-.16.52-.36.81-.42.19-.04.42.15.62.25.15.07.28.19.44.24.35.1.48.36.25.63-.32.37-.66.72-1.01,1.07-.25.24-.51.07-.65-.1-.42-.51-.89-.59-1.45-.27-.01,0-.04-.01-.12-.04Z"/>
    <path class="cls-2" d="M201.61,95.02c.21.11.36.19.52.27.26.13.53.25.79.37.26.11.28.23.09.44-.31.33-.58.71-.89,1.04-.23.25-.63.21-.86-.05-.09-.1-.19-.2-.3-.29-.3-.27-.44-.26-.77-.02-.11.08-.33.18-.38.13-.18-.16-.02-.3.11-.44.34-.36.66-.74,1.03-1.07.18-.16.43-.25.67-.39Z"/>
    <path class="cls-2" d="M83.21,87.05c-.21.07-.34.11-.47.14-.1.02-.2.03-.3.04,0-.12-.04-.3.02-.35.54-.45.86-1.14,1.58-1.38.03-.01.06-.04.09-.05.21-.05,1.28.56,1.37.76.21.48-.19.7-.42.98-.12.14-.28.25-.43.36-.22.17-.41.13-.64-.03-.25-.19-.55-.33-.79-.47Z"/>
    <path class="cls-2" d="M113.73,87.29c.04-.19.03-.36.12-.45.34-.38.7-.76,1.09-1.09.19-.16.47-.28.71-.3.18-.02.38.15.56.26.2.12.39.27.59.38.2.12.23.32.11.45-.35.4-.74.78-1.13,1.15-.04.04-.23-.04-.33-.1-.32-.23-.58-.58-1.04-.48-.19.04-.38.1-.68.19Z"/>
    <path class="cls-2" d="M103.36,95.9c-.08.12-.11.19-.16.24-.3.33-.59.67-.91.98-.16.15-.35.28-.58.08-.12-.11-.29-.17-.39-.29-.27-.31-.55-.29-.89-.13-.12.05-.28.02-.42.02.06-.12.09-.26.17-.35.41-.41.82-.82,1.25-1.21.29-.25.61-.18.91,0,.2.11.41.21.6.33.14.09.26.2.41.32Z"/>
    <path class="cls-2" d="M135.57,85.49c.18.07.33.12.46.19.12.05.22.15.34.19.68.24.78.71.24,1.17-.25.21-.52.41-.81.56-.12.06-.38.01-.48-.09-.38-.4-.72-.5-1.26-.35-.09.03-.21,0-.31-.01.04-.12.03-.28.11-.36.33-.35.66-.69,1.03-.99.19-.15.46-.2.68-.3Z"/>
    <path class="cls-2" d="M150.23,95.11c.1.02.18,0,.24.04.36.18.71.37,1.07.55.19.09.22.24.1.37-.34.39-.69.79-1.08,1.15-.19.18-.65,0-.85-.24-.26-.33-.54-.39-.9-.21-.11.05-.25.04-.38.06.05-.12.06-.26.15-.35.43-.43.87-.84,1.32-1.24.09-.08.24-.09.33-.12Z"/>
    <path class="cls-2" d="M182.4,85.45c.36.2.75.37,1.08.61.1.08.14.36.09.51-.15.51-.56.81-1.03.98-.16.06-.42-.06-.59-.17-.32-.2-.6-.52-1.04-.28-.07.04-.18.01-.26-.02-.03,0-.04-.14-.01-.19.37-.59.8-1.12,1.51-1.35.07-.02.14-.02.21-.03.02-.03.03-.06.05-.08Z"/>
  </g>
  <text class="cls-3" transform="translate(11.5 80.17)"><tspan x="0" y="0">H</tspan><tspan class="cls-6" x="19.22" y="0">a</tspan><tspan class="cls-4" x="31.77" y="0">y</tspan><tspan x="45.04" y="0">bah </tspan><tspan class="cls-5" x="94.64" y="0">C</tspan><tspan x="112.09" y="0">ollections</tspan></text>
</svg>